<svg xmlns="http://www.w3.org/2000/svg" version="1.1" xmlns:xlink="http://www.w3.org/1999/xlink" xmlns:svgjs="http://svgjs.dev/svgjs" width="1000" height="247" viewBox="0 0 1000 247"><g transform="matrix(1,0,0,1,-0.6060606060606233,0.336072678998363)"><svg viewBox="0 0 396 98" data-background-color="#f9fbfc" preserveAspectRatio="xMidYMid meet" height="247" width="1000" xmlns="http://www.w3.org/2000/svg" xmlns:xlink="http://www.w3.org/1999/xlink"><g id="tight-bounds" transform="matrix(1,0,0,1,0.2400000000000091,-0.1333405770924685)"><svg viewBox="0 0 395.52 98.26668115418494" height="98.26668115418494" width="395.52"><g><svg viewBox="0 0 580.3742955796632 144.19360804462846" height="98.26668115418494" width="395.52"><g><rect width="6.520731586223034" height="125.20429063209417" x="412.5899779744058" y="9.494658706267145" fill="#2365eb" opacity="1" stroke-width="0" stroke="transparent" fill-opacity="1" class="rect-r$-0" data-fill-palette-color="primary" rx="1%" id="r$-0" data-palette-color="#2365eb"></rect></g><g transform="matrix(1,0,0,1,0,19.92834959227499)"><svg viewBox="0 0 395.52 104.33690886007848" height="104.33690886007848" width="395.52"><g id="textblocktransform"><svg viewBox="0 0 395.52 104.33690886007848" height="104.33690886007848" width="395.52" id="textblock"><g><svg viewBox="0 0 395.52 72.30712979890309" height="72.30712979890309" width="395.52"><g transform="matrix(1,0,0,1,0,0)"><svg width="395.52" viewBox="3.5 -35 191.43 35" height="72.30712979890309" data-palette-color="#2365eb"><path d="M8.2-35L8.2 0 3.5 0 3.5-35 8.2-35ZM19.9-30.6L19.9 0 15.2 0 15.2-35 27.55-35Q33.75-35 36.8-32.23 39.85-29.45 39.85-23.5L39.85-23.5 39.85 0 35.15 0 35.15-24.15Q35.15-27.55 33.07-29.08 31-30.6 27.6-30.6L27.6-30.6 19.9-30.6ZM53-30.6L44.35-30.6 44.35-35 66.34-35 66.34-30.6 57.7-30.6 57.7 0 53 0 53-30.6ZM79.59-35L88.74-35 88.74-30.6 79.89-30.6Q74.84-30.6 74.84-26.5L74.84-26.5Q74.84-24.3 77.07-22.78 79.29-21.25 83.09-19.85L83.09-19.85Q84.79-19.2 85.99-18.53 87.19-17.85 88.39-16.75 89.59-15.65 90.19-13.93 90.79-12.2 90.79-9.95L90.79-9.95Q90.79-7.45 89.74-5.48 88.69-3.5 87.04-2.38 85.39-1.25 83.67-0.68 81.94-0.1 80.29-0.05L80.29-0.05Q79.59 0 78.29 0L78.29 0 70.49 0 70.49-4.4 78.14-4.4Q81.54-4.4 83.69-5.83 85.84-7.25 85.84-10L85.84-10Q85.84-11.35 85.24-12.38 84.64-13.4 83.52-14.15 82.39-14.9 81.22-15.45 80.04-16 78.39-16.6L78.39-16.6Q77.94-16.75 77.69-16.85L77.69-16.85Q69.84-19.85 69.84-26.65L69.84-26.65Q69.84-30.85 72.54-32.93 75.24-35 79.59-35L79.59-35ZM107.09-4.4L115.64-4.4 115.64 0 108.34 0Q106.29 0 105.12-0.08 103.94-0.15 102.19-0.68 100.44-1.2 99.24-2.25L99.24-2.25Q97.39-3.95 96.84-6.33 96.29-8.7 96.29-11.9L96.29-11.9 96.29-35 100.99-35 100.99-12Q100.99-9.1 101.64-7.45L101.64-7.45Q102.94-4.4 107.09-4.4L107.09-4.4ZM124.34-12.8L124.34 0 119.89 0 119.89-22Q119.89-27.4 123.36-31.2 126.84-35 132.34-35L132.34-35 143.79-35 143.79 0 139.09 0 139.09-30.6 132.34-30.6Q128.69-30.6 126.51-28.45 124.34-26.3 124.34-21.6L124.34-21.6 124.34-17.35Q127.14-20.3 132.34-20.3L132.34-20.3 136.89-20.3 136.89-15.9 132.34-15.9Q129.44-15.9 127.61-15.2 125.79-14.5 124.34-12.8L124.34-12.8ZM157.19-30.6L148.54-30.6 148.54-35 170.54-35 170.54-30.6 161.89-30.6 161.89 0 157.19 0 157.19-30.6ZM194.93-4.4L194.93 0 175.03 0 175.03-26.65Q175.03-30.35 177.38-32.6L177.38-32.6Q178.98-34.1 180.98-34.55 182.98-35 185.88-35L185.88-35 194.93-35 194.93-30.6 185.23-30.6Q179.73-30.6 179.73-26L179.73-26 179.73-20.3 191.28-20.3 191.28-15.9 179.73-15.9 179.73-4.4 194.93-4.4Z" opacity="1" transform="matrix(1,0,0,1,0,0)" fill="#2365eb" class="wordmark-text-0" data-fill-palette-color="primary" id="text-0"></path></svg></g></svg></g><g transform="matrix(1,0,0,1,163.31020799999996,89.37710777330894)"><svg viewBox="0 0 232.20979200000002 14.959801086769543" height="14.959801086769543" width="232.20979200000002"><g transform="matrix(1,0,0,1,0,0)"><svg width="232.20979200000002" viewBox="1.05 -36.6 592.9100000000001 38.2" height="14.959801086769543" data-palette-color="#f77c10"><path d="M19.9-2.2L19.9-2.2Q21.3-3.5 22.13-5.3 22.95-7.1 22.95-9.35L22.95-9.35Q22.95-13 21.65-15.1 20.35-17.2 18.25-18.2L18.25-18.2Q15.95-19.3 13.45-20.03 10.95-20.75 9.15-21.7L9.15-21.7Q8-22.35 7.3-23.28 6.6-24.2 6.6-25.7L6.6-25.7Q6.6-26.8 6.93-27.78 7.25-28.75 7.9-29.5L7.9-29.5Q8.6-30.3 9.7-30.78 10.8-31.25 12.3-31.25L12.3-31.25Q13.8-31.25 15.05-30.95 16.3-30.65 17.25-30.25L17.25-30.25 17.25-27.3 21.2-27.3 21.2-32.2Q20-33.2 18.78-33.8 17.55-34.4 16.4-34.7L16.4-34.7Q15.25-35 14.2-35.1 13.15-35.2 12.25-35.2L12.25-35.2Q9.5-35.2 7.6-34.35 5.7-33.5 4.55-32.15L4.55-32.15Q3.4-30.8 2.9-29.15 2.4-27.5 2.45-25.85L2.45-25.85Q2.5-22.75 3.73-21.05 4.95-19.35 6.8-18.4L6.8-18.4Q8.6-17.45 10.7-16.9 12.8-16.35 14.6-15.6L14.6-15.6Q15.75-15.05 16.63-14.43 17.5-13.8 18.15-12.75L18.15-12.75Q18.55-12.1 18.68-11.2 18.8-10.3 18.8-9.4L18.8-9.4Q18.8-7.95 18.25-6.85 17.7-5.75 16.8-5L16.8-5Q15.85-4.3 14.65-3.93 13.45-3.55 12.15-3.55L12.15-3.55Q9.9-3.55 8.1-4.28 6.3-5 5-6L5-6 5-10.45 1.05-10.45 1.05-4.65Q1.7-3.65 2.88-2.75 4.05-1.85 5.55-1.15L5.55-1.15Q7.05-0.45 8.85-0.03 10.65 0.4 12.55 0.4L12.55 0.4Q14.65 0.4 16.55-0.28 18.45-0.95 19.9-2.2ZM52.6-2.1L52.6-2.1 50.35-5.4Q48.8-4.5 47.07-4.03 45.35-3.55 43.5-3.55L43.5-3.55Q40.65-3.55 38.17-4.65 35.7-5.75 33.85-7.65L33.85-7.65Q31.95-9.5 30.87-12.05 29.8-14.6 29.8-17.45L29.8-17.45Q29.8-20.3 30.87-22.85 31.95-25.4 33.85-27.35L33.85-27.35Q35.7-29.25 38.17-30.35 40.65-31.45 43.5-31.45L43.5-31.45Q44.85-31.45 46.15-31.18 47.45-30.9 48.7-30.35L48.7-30.35 48.7-27.3 52.65-27.3 52.65-32.9Q50.6-34.1 48.32-34.75 46.05-35.4 43.5-35.4L43.5-35.4Q39.8-35.4 36.55-33.98 33.3-32.55 30.9-30.15L30.9-30.15Q28.45-27.7 27.05-24.43 25.65-21.15 25.65-17.45L25.65-17.45Q25.65-13.75 27.05-10.5 28.45-7.25 30.9-4.85L30.9-4.85Q33.3-2.4 36.55-1 39.8 0.4 43.5 0.4L43.5 0.4Q46.05 0.4 48.32-0.28 50.6-0.95 52.6-2.1ZM56.15 0L68.25 0 68.25-3.95 64.25-3.95 64.25-15.65 83.15-15.65 83.15-3.95 79.15-3.95 79.15 0 91.25 0 91.25-3.95 87.3-3.95 87.3-31.05 91.25-31.05 91.25-35 79.15-35 79.15-31.05 83.15-31.05 83.15-19.6 64.25-19.6 64.25-31.05 68.25-31.05 68.25-35 56.15-35 56.15-31.05 60.1-31.05 60.1-3.95 56.15-3.95 56.15 0ZM125.24-4.85L125.24-4.85Q127.69-7.25 129.12-10.5 130.54-13.75 130.54-17.45L130.54-17.45Q130.54-21.1 129.12-24.38 127.69-27.65 125.24-30.1L125.24-30.1Q122.79-32.55 119.52-33.98 116.24-35.4 112.59-35.4L112.59-35.4Q108.89-35.4 105.64-33.98 102.39-32.55 99.99-30.1L99.99-30.1Q97.54-27.65 96.14-24.38 94.74-21.1 94.74-17.45L94.74-17.45Q94.74-13.75 96.14-10.5 97.54-7.25 99.99-4.85L99.99-4.85Q102.39-2.4 105.64-1 108.89 0.4 112.59 0.4L112.59 0.4Q116.24 0.4 119.52-1 122.79-2.4 125.24-4.85ZM102.94-7.65L102.94-7.65Q101.04-9.5 99.97-12.03 98.89-14.55 98.89-17.45L98.89-17.45Q98.89-20.35 99.97-22.88 101.04-25.4 102.94-27.3L102.94-27.3Q104.79-29.2 107.29-30.3 109.79-31.4 112.64-31.4L112.64-31.4Q115.49-31.4 117.99-30.3 120.49-29.2 122.39-27.3L122.39-27.3Q124.24-25.4 125.32-22.88 126.39-20.35 126.39-17.45L126.39-17.45Q126.39-14.55 125.32-12.03 124.24-9.5 122.39-7.65L122.39-7.65Q120.49-5.75 117.99-4.65 115.49-3.55 112.64-3.55L112.64-3.55Q109.79-3.55 107.29-4.65 104.79-5.75 102.94-7.65ZM164.54-4.85L164.54-4.85Q166.99-7.25 168.42-10.5 169.84-13.75 169.84-17.45L169.84-17.45Q169.84-21.1 168.42-24.38 166.99-27.65 164.54-30.1L164.54-30.1Q162.09-32.55 158.82-33.98 155.54-35.4 151.89-35.4L151.89-35.4Q148.19-35.4 144.94-33.98 141.69-32.55 139.29-30.1L139.29-30.1Q136.84-27.65 135.44-24.38 134.04-21.1 134.04-17.45L134.04-17.45Q134.04-13.75 135.44-10.5 136.84-7.25 139.29-4.85L139.29-4.85Q141.69-2.4 144.94-1 148.19 0.4 151.89 0.4L151.89 0.4Q155.54 0.4 158.82-1 162.09-2.4 164.54-4.85ZM142.24-7.65L142.24-7.65Q140.34-9.5 139.27-12.03 138.19-14.55 138.19-17.45L138.19-17.45Q138.19-20.35 139.27-22.88 140.34-25.4 142.24-27.3L142.24-27.3Q144.09-29.2 146.59-30.3 149.09-31.4 151.94-31.4L151.94-31.4Q154.79-31.4 157.29-30.3 159.79-29.2 161.69-27.3L161.69-27.3Q163.54-25.4 164.62-22.88 165.69-20.35 165.69-17.45L165.69-17.45Q165.69-14.55 164.62-12.03 163.54-9.5 161.69-7.65L161.69-7.65Q159.79-5.75 157.29-4.65 154.79-3.55 151.94-3.55L151.94-3.55Q149.09-3.55 146.59-4.65 144.09-5.75 142.24-7.65ZM173.34 0L198.39 0 198.39-7.7 194.44-7.7 194.44-3.95 180.29-3.95 180.29-31.05 184.44-31.05 184.44-35 173.34-35 173.34-31.05 176.14-31.05 176.14-3.95 173.34-3.95 173.34 0ZM216.88 0L228.98 0 228.98-3.95 225.38-3.95 225.38-23.5Q225.38-23.9 225.33-24.3 225.28-24.7 225.23-25.1L225.23-25.1Q225.48-24.65 225.71-24.35 225.93-24.05 226.28-23.6L226.28-23.6 239.53-6.25 252.23-22.8Q252.63-23.35 253.03-23.95 253.43-24.55 253.83-25.1L253.83-25.1Q253.78-24.7 253.76-24.3 253.73-23.9 253.68-23.5L253.68-23.5 253.68-3.95 250.08-3.95 250.08 0 262.18 0 262.18-3.95 257.83-3.95 257.83-31.05 262.18-31.05 262.18-35 256.58-35Q252.28-29.45 248.06-23.93 243.83-18.4 239.53-12.85L239.53-12.85Q235.23-18.4 231.01-23.93 226.78-29.45 222.48-35L222.48-35 216.88-35 216.88-31.05 221.23-31.05 221.23-3.95 216.88-3.95 216.88 0ZM265.68 0L276.78 0 276.78-3.95 273.93-3.95Q275.33-7.25 276.03-8.9 276.73-10.55 278.13-13.85L278.13-13.85 289.13-13.85Q290.18-11.35 291.21-8.9 292.23-6.45 293.28-3.95L293.28-3.95 290.48-3.95 290.48 0 301.58 0 301.58-3.95 297.48-3.95Q294.03-12.2 290.56-20.28 287.08-28.35 283.63-36.6L283.63-36.6Q280.18-28.35 276.71-20.28 273.23-12.2 269.78-3.95L269.78-3.95 265.68-3.95 265.68 0ZM283.08-25.75L283.08-25.75Q283.13-25.9 283.26-26.25 283.38-26.6 283.58-27.4L283.58-27.4 284.08-25.75 287.43-17.8 279.83-17.8Q280.53-19.55 281.36-21.68 282.18-23.8 283.08-25.75ZM339.98 1.6L339.98-31.05 344.33-31.05 344.33-35 332.23-35 332.23-31.05 335.83-31.05 335.83-9.15 335.98-7.55 335.03-8.85 310.88-35 305.08-35 305.08-31.05 309.43-31.05 309.43-3.95 305.08-3.95 305.08 0 317.18 0 317.18-3.95 313.58-3.95 313.58-25.3 313.43-26.9 314.38-25.6 339.98 1.6ZM347.83 0L358.93 0 358.93-3.95 356.08-3.95Q357.48-7.25 358.18-8.9 358.88-10.55 360.28-13.85L360.28-13.85 371.28-13.85Q372.33-11.35 373.35-8.9 374.38-6.45 375.43-3.95L375.43-3.95 372.63-3.95 372.63 0 383.73 0 383.73-3.95 379.63-3.95Q376.18-12.2 372.7-20.28 369.23-28.35 365.78-36.6L365.78-36.6Q362.33-28.35 358.85-20.28 355.38-12.2 351.93-3.95L351.93-3.95 347.83-3.95 347.83 0ZM365.23-25.75L365.23-25.75Q365.28-25.9 365.4-26.25 365.53-26.6 365.73-27.4L365.73-27.4 366.23-25.75 369.58-17.8 361.98-17.8Q362.68-19.55 363.5-21.68 364.33-23.8 365.23-25.75ZM414.17-2L414.17-2 414.17-14.9 404.87-14.9 404.87-10.95 410.02-10.95 410.02-4.35Q408.87-3.9 407.62-3.68 406.37-3.45 405.07-3.45L405.07-3.45Q402.22-3.45 399.75-4.55 397.27-5.65 395.42-7.55L395.42-7.55Q393.52-9.4 392.45-11.95 391.37-14.5 391.37-17.35L391.37-17.35Q391.37-20.2 392.45-22.75 393.52-25.3 395.42-27.25L395.42-27.25Q397.27-29.15 399.75-30.25 402.22-31.35 405.07-31.35L405.07-31.35Q406.97-31.35 408.67-30.85 410.37-30.35 411.92-29.45L411.92-29.45 414.22-32.8Q412.17-34 409.9-34.65 407.62-35.3 405.07-35.3L405.07-35.3Q401.37-35.3 398.12-33.88 394.87-32.45 392.47-30.05L392.47-30.05Q390.02-27.6 388.62-24.33 387.22-21.05 387.22-17.35L387.22-17.35Q387.22-13.65 388.62-10.4 390.02-7.15 392.47-4.75L392.47-4.75Q394.87-2.3 398.12-0.9 401.37 0.5 405.07 0.5L405.07 0.5Q407.62 0.5 409.9-0.18 412.17-0.85 414.17-2ZM417.67 0L442.72 0 442.72-7.7 438.77-7.7 438.77-3.95 424.62-3.95 424.62-15.65 440.07-15.65 440.07-19.6 424.62-19.6 424.62-31.05 438.07-31.05 438.07-27.3 442.02-27.3 442.02-35 417.67-35 417.67-31.05 420.47-31.05 420.47-3.95 417.67-3.95 417.67 0ZM446.22 0L458.32 0 458.32-3.95 454.72-3.95 454.72-23.5Q454.72-23.9 454.67-24.3 454.62-24.7 454.57-25.1L454.57-25.1Q454.82-24.65 455.04-24.35 455.27-24.05 455.62-23.6L455.62-23.6 468.87-6.25 481.57-22.8Q481.97-23.35 482.37-23.95 482.77-24.55 483.17-25.1L483.17-25.1Q483.12-24.7 483.09-24.3 483.07-23.9 483.02-23.5L483.02-23.5 483.02-3.95 479.42-3.95 479.42 0 491.52 0 491.52-3.95 487.17-3.95 487.17-31.05 491.52-31.05 491.52-35 485.92-35Q481.62-29.45 477.39-23.93 473.17-18.4 468.87-12.85L468.87-12.85Q464.57-18.4 460.34-23.93 456.12-29.45 451.82-35L451.82-35 446.22-35 446.22-31.05 450.57-31.05 450.57-3.95 446.22-3.95 446.22 0ZM495.02 0L520.07 0 520.07-7.7 516.12-7.7 516.12-3.95 501.97-3.95 501.97-15.65 517.42-15.65 517.42-19.6 501.97-19.6 501.97-31.05 515.42-31.05 515.42-27.3 519.37-27.3 519.37-35 495.02-35 495.02-31.05 497.82-31.05 497.82-3.95 495.02-3.95 495.02 0ZM558.46 1.6L558.46-31.05 562.81-31.05 562.81-35 550.71-35 550.71-31.05 554.31-31.05 554.31-9.15 554.46-7.55 553.51-8.85 529.36-35 523.56-35 523.56-31.05 527.91-31.05 527.91-3.95 523.56-3.95 523.56 0 535.66 0 535.66-3.95 532.06-3.95 532.06-25.3 531.91-26.9 532.86-25.6 558.46 1.6ZM573.81 0L585.91 0 585.91-3.95 582.26-3.95 582.26-31.05 590.01-31.05 590.01-27.3 593.96-27.3 593.96-35 566.31-35 566.31-27.3 570.26-27.3 570.26-31.05 578.11-31.05 578.11-3.95 573.81-3.95 573.81 0Z" opacity="1" transform="matrix(1,0,0,1,0,0)" fill="#f77c10" class="slogan-text-1" data-fill-palette-color="secondary" id="text-1"></path></svg></g></svg></g></svg></g></svg></g><g transform="matrix(1,0,0,1,436.1806875350347,0)"><svg viewBox="0 0 144.19360804462846 144.19360804462846" height="144.19360804462846" width="144.19360804462846"><g><svg xmlns="http://www.w3.org/2000/svg" xmlns:xlink="http://www.w3.org/1999/xlink" version="1.1" x="0" y="0" viewBox="2 2 508 508" enable-background="new 0 0 512 512" xml:space="preserve" height="144.19360804462846" width="144.19360804462846" class="icon-icon-0" data-fill-palette-color="accent" id="icon-0"><g fill="#f97c10" data-fill-palette-color="accent"><path d="M7.2 510H510V7.2L7.2 510zM493.6 100.6h-16.4V117h16.4v32.8h-16.4v16.4h16.4v32.8h-16.4v16.4h16.4V248h-16.4v16.4h16.4v32.8h-16.4v16.4h16.4v32.7h-16.4v16.4h16.4v32.7h-16.4v16.4h16.4v32.8h-16.4v16.4h16.4v32.8h-40.9v-16.4h-16.4v16.4h-32.7v-16.4h-16.4v16.4h-32.7v-16.4h-16.4v16.4h-32.8v-16.4h-16.4v16.4h-32.7v-16.4h-16.4v16.4h-32.7v-16.4h-16.4v16.4h-32.7v-16.4h-16.4v16.4h-32.7v-16.4H92.4v16.4H46.7L493.6 46.7V100.6z" fill="#f97c10" data-fill-palette-color="accent"></path><path d="M428.1 204.8L204.8 428.1h223.3V204.8zM411.7 411.8H244.4l167.4-167.4V411.8z" fill="#f97c10" data-fill-palette-color="accent"></path><path d="M74.9 399.1L399.1 74.9l-5.8-5.8C350.1 25.8 292.5 2 231.3 2 170 2 112.4 25.8 69.1 69.1 25.9 112.4 2 170 2 231.2s23.9 118.8 67.1 162.1L74.9 399.1zM80.7 80.7c40.2-40.2 93.7-62.3 150.5-62.3 54.1 0 105.2 20.1 144.6 56.7L75 375.9c-36.6-39.5-56.7-90.5-56.7-144.6C18.4 174.4 40.5 120.9 80.7 80.7z" fill="#f97c10" data-fill-palette-color="accent"></path><path d="M326.6 78l-9.6-5.2c-26.1-14.1-130.6-51.4-213.1 31.1-55.9 55.9-68.7 143.5-31.1 213l5.2 9.7L326.6 78zM115.5 115.5c71.9-71.9 162.6-42.9 183.8-33.3l-217 217C54.4 237.7 67.3 163.6 115.5 115.5z" fill="#f97c10" data-fill-palette-color="accent"></path></g></svg></g></svg></g></svg></g><defs></defs></svg><rect width="395.52" height="98.26668115418494" fill="none" stroke="none" visibility="hidden"></rect></g></svg></g></svg>